P3
# Created by GIMP version 2.10.30 PNM plug-in
2 2
255
245
245
245
24
24
24
56
56
56
238
238
238