P3
2 2
255
255
255
255
19
19
19
255
255
255
25
25
25
