P3
# Created by GIMP version 2.10.30 PNM plug-in
2 2
255
255
19
24
52
255
245
255
25
238
80
255
56