P3
# Created by GIMP version 2.10.30 PNM plug-in
2 2
255
184
184
184
99
99
99
130
130
130
172
172
172