P3
# Created by GIMP version 2.10.30 PNM plug-in
2 2
255
211
211
211
69
69
69
203
203
203
89
89
89