P3
# Created by GIMP version 2.10.30 PNM plug-in
2 2
255
52
52
52
255
255
255
80
80
80
255
255
255
