P3
2 2
255
80
255
56
255
25
238
52
255
245
255
19
24